<mxfile host="app.diagrams.net" modified="2021-06-16T09:45:31.738Z" agent="5.0 (Macintosh; Intel Mac OS X 10_15_7) AppleWebKit/537.36 (KHTML, like Gecko) Chrome/91.0.4472.101 Safari/537.36" etag="QNETrQqCZyXo0nyxFLs0" version="14.7.9" type="github">
  <diagram id="NUCHjerggOm3OMJYKeuQ" name="Page-1">
    <mxGraphModel dx="1426" dy="714" grid="1" gridSize="10" guides="1" tooltips="1" connect="1" arrows="1" fold="1" page="1" pageScale="1" pageWidth="827" pageHeight="1169" math="0" shadow="0">
      <root>
        <mxCell id="0" />
        <mxCell id="1" parent="0" />
        <mxCell id="K0_olAz4azfouy1TQkoH-12" value="" style="edgeStyle=orthogonalEdgeStyle;rounded=0;orthogonalLoop=1;jettySize=auto;html=1;" parent="1" source="K0_olAz4azfouy1TQkoH-2" target="K0_olAz4azfouy1TQkoH-13" edge="1">
          <mxGeometry relative="1" as="geometry">
            <mxPoint x="554" y="130" as="targetPoint" />
          </mxGeometry>
        </mxCell>
        <mxCell id="K0_olAz4azfouy1TQkoH-2" value="浏览器发送请求" style="ellipse;whiteSpace=wrap;html=1;" parent="1" vertex="1">
          <mxGeometry x="354" y="170" width="120" height="80" as="geometry" />
        </mxCell>
        <mxCell id="K0_olAz4azfouy1TQkoH-14" style="edgeStyle=orthogonalEdgeStyle;rounded=0;orthogonalLoop=1;jettySize=auto;html=1;exitX=0.5;exitY=1;exitDx=0;exitDy=0;entryX=0.5;entryY=0;entryDx=0;entryDy=0;" parent="1" source="K0_olAz4azfouy1TQkoH-13" target="K0_olAz4azfouy1TQkoH-15" edge="1">
          <mxGeometry relative="1" as="geometry">
            <mxPoint x="414" y="350" as="targetPoint" />
          </mxGeometry>
        </mxCell>
        <mxCell id="K0_olAz4azfouy1TQkoH-17" value="未命中" style="edgeLabel;html=1;align=center;verticalAlign=middle;resizable=0;points=[];" parent="K0_olAz4azfouy1TQkoH-14" vertex="1" connectable="0">
          <mxGeometry x="-0.2" y="3" relative="1" as="geometry">
            <mxPoint as="offset" />
          </mxGeometry>
        </mxCell>
        <mxCell id="K0_olAz4azfouy1TQkoH-13" value="命中 Service Worker 缓存？&lt;br&gt;(通过&lt;br&gt;Service Worker Handler&lt;br&gt;判断&lt;br&gt;)" style="rhombus;whiteSpace=wrap;html=1;" parent="1" vertex="1">
          <mxGeometry x="292" y="300" width="244" height="100" as="geometry" />
        </mxCell>
        <mxCell id="K0_olAz4azfouy1TQkoH-20" value="" style="edgeStyle=orthogonalEdgeStyle;rounded=0;orthogonalLoop=1;jettySize=auto;html=1;entryX=0.5;entryY=0;entryDx=0;entryDy=0;" parent="1" source="K0_olAz4azfouy1TQkoH-15" target="K0_olAz4azfouy1TQkoH-27" edge="1">
          <mxGeometry relative="1" as="geometry">
            <mxPoint x="414" y="620" as="targetPoint" />
          </mxGeometry>
        </mxCell>
        <mxCell id="K0_olAz4azfouy1TQkoH-21" value="未命中" style="edgeLabel;html=1;align=center;verticalAlign=middle;resizable=0;points=[];" parent="K0_olAz4azfouy1TQkoH-20" vertex="1" connectable="0">
          <mxGeometry x="0.075" relative="1" as="geometry">
            <mxPoint y="2" as="offset" />
          </mxGeometry>
        </mxCell>
        <mxCell id="K0_olAz4azfouy1TQkoH-38" style="edgeStyle=orthogonalEdgeStyle;rounded=0;orthogonalLoop=1;jettySize=auto;html=1;exitX=0;exitY=0.5;exitDx=0;exitDy=0;" parent="1" source="K0_olAz4azfouy1TQkoH-15" target="K0_olAz4azfouy1TQkoH-23" edge="1">
          <mxGeometry relative="1" as="geometry">
            <Array as="points">
              <mxPoint x="160" y="510" />
            </Array>
          </mxGeometry>
        </mxCell>
        <mxCell id="K0_olAz4azfouy1TQkoH-39" value="命中" style="edgeLabel;html=1;align=center;verticalAlign=middle;resizable=0;points=[];" parent="K0_olAz4azfouy1TQkoH-38" vertex="1" connectable="0">
          <mxGeometry x="-0.9171" y="-1" relative="1" as="geometry">
            <mxPoint x="-128.67000000000002" y="76" as="offset" />
          </mxGeometry>
        </mxCell>
        <mxCell id="K0_olAz4azfouy1TQkoH-15" value="命中memory cache?&lt;br&gt;（只在该tab周期中存在，刷新就没）" style="rhombus;whiteSpace=wrap;html=1;" parent="1" vertex="1">
          <mxGeometry x="314" y="470" width="200" height="80" as="geometry" />
        </mxCell>
        <mxCell id="K0_olAz4azfouy1TQkoH-26" value="" style="edgeStyle=orthogonalEdgeStyle;rounded=0;orthogonalLoop=1;jettySize=auto;html=1;exitX=0.5;exitY=1;exitDx=0;exitDy=0;entryX=0.5;entryY=0;entryDx=0;entryDy=0;" parent="1" source="K0_olAz4azfouy1TQkoH-27" target="K0_olAz4azfouy1TQkoH-29" edge="1">
          <mxGeometry relative="1" as="geometry">
            <mxPoint x="414" y="680" as="sourcePoint" />
            <mxPoint x="414" y="760.0000000000005" as="targetPoint" />
          </mxGeometry>
        </mxCell>
        <mxCell id="K0_olAz4azfouy1TQkoH-23" value="使用缓存内容&lt;br&gt;状态码200(from memory/disk cache)" style="rounded=0;whiteSpace=wrap;html=1;" parent="1" vertex="1">
          <mxGeometry x="98" y="910" width="256" height="60" as="geometry" />
        </mxCell>
        <mxCell id="K0_olAz4azfouy1TQkoH-69" style="edgeStyle=orthogonalEdgeStyle;rounded=0;orthogonalLoop=1;jettySize=auto;html=1;exitX=0;exitY=0.5;exitDx=0;exitDy=0;" parent="1" source="K0_olAz4azfouy1TQkoH-27" target="K0_olAz4azfouy1TQkoH-23" edge="1">
          <mxGeometry relative="1" as="geometry" />
        </mxCell>
        <mxCell id="K0_olAz4azfouy1TQkoH-71" value="未命中" style="edgeLabel;html=1;align=center;verticalAlign=middle;resizable=0;points=[];" parent="K0_olAz4azfouy1TQkoH-69" vertex="1" connectable="0">
          <mxGeometry x="-0.1995" relative="1" as="geometry">
            <mxPoint y="1" as="offset" />
          </mxGeometry>
        </mxCell>
        <mxCell id="K0_olAz4azfouy1TQkoH-27" value="&lt;span&gt;&lt;b&gt;强缓存&lt;/b&gt;&lt;br&gt;Expires(过期时间戳) ||&lt;br&gt;Cache-Control:max-age=500(过期时长)&lt;br&gt;&lt;/span&gt;" style="rhombus;whiteSpace=wrap;html=1;" parent="1" vertex="1">
          <mxGeometry x="304" y="620" width="220" height="80" as="geometry" />
        </mxCell>
        <mxCell id="K0_olAz4azfouy1TQkoH-33" value="" style="edgeStyle=orthogonalEdgeStyle;rounded=0;orthogonalLoop=1;jettySize=auto;html=1;exitX=0;exitY=0.5;exitDx=0;exitDy=0;entryX=0.75;entryY=0;entryDx=0;entryDy=0;" parent="1" source="K0_olAz4azfouy1TQkoH-29" target="K0_olAz4azfouy1TQkoH-23" edge="1">
          <mxGeometry relative="1" as="geometry">
            <mxPoint x="280" y="960" as="targetPoint" />
          </mxGeometry>
        </mxCell>
        <mxCell id="K0_olAz4azfouy1TQkoH-34" value="未失效" style="edgeLabel;html=1;align=center;verticalAlign=middle;resizable=0;points=[];" parent="K0_olAz4azfouy1TQkoH-33" vertex="1" connectable="0">
          <mxGeometry x="0.05" y="-1" relative="1" as="geometry">
            <mxPoint x="3" y="25" as="offset" />
          </mxGeometry>
        </mxCell>
        <mxCell id="K0_olAz4azfouy1TQkoH-36" value="" style="edgeStyle=orthogonalEdgeStyle;rounded=0;orthogonalLoop=1;jettySize=auto;html=1;entryX=0.5;entryY=0;entryDx=0;entryDy=0;exitX=1;exitY=0.5;exitDx=0;exitDy=0;" parent="1" source="K0_olAz4azfouy1TQkoH-29" target="K0_olAz4azfouy1TQkoH-48" edge="1">
          <mxGeometry relative="1" as="geometry">
            <mxPoint x="500" y="1060" as="targetPoint" />
          </mxGeometry>
        </mxCell>
        <mxCell id="K0_olAz4azfouy1TQkoH-37" value="已失效" style="edgeLabel;html=1;align=center;verticalAlign=middle;resizable=0;points=[];" parent="K0_olAz4azfouy1TQkoH-36" vertex="1" connectable="0">
          <mxGeometry x="-0.592" y="3" relative="1" as="geometry">
            <mxPoint x="31" y="53" as="offset" />
          </mxGeometry>
        </mxCell>
        <mxCell id="K0_olAz4azfouy1TQkoH-29" value="强缓存是否失效" style="rhombus;whiteSpace=wrap;html=1;rounded=0;" parent="1" vertex="1">
          <mxGeometry x="347" y="770" width="134" height="80" as="geometry" />
        </mxCell>
        <mxCell id="K0_olAz4azfouy1TQkoH-56" value="" style="edgeStyle=orthogonalEdgeStyle;rounded=0;orthogonalLoop=1;jettySize=auto;html=1;" parent="1" source="K0_olAz4azfouy1TQkoH-40" target="K0_olAz4azfouy1TQkoH-55" edge="1">
          <mxGeometry relative="1" as="geometry" />
        </mxCell>
        <mxCell id="K0_olAz4azfouy1TQkoH-40" value="发送网络请求，等待网络响应" style="rounded=0;whiteSpace=wrap;html=1;" parent="1" vertex="1">
          <mxGeometry x="418" y="1270" width="256" height="60" as="geometry" />
        </mxCell>
        <mxCell id="K0_olAz4azfouy1TQkoH-44" value="" style="edgeStyle=orthogonalEdgeStyle;rounded=0;orthogonalLoop=1;jettySize=auto;html=1;" parent="1" source="K0_olAz4azfouy1TQkoH-41" target="K0_olAz4azfouy1TQkoH-43" edge="1">
          <mxGeometry relative="1" as="geometry" />
        </mxCell>
        <mxCell id="K0_olAz4azfouy1TQkoH-41" value="如果 HTTP 响应头指示缓存的话&lt;br&gt;把响应内容存入 disk cache" style="rounded=0;whiteSpace=wrap;html=1;" parent="1" vertex="1">
          <mxGeometry x="411.5" y="1570" width="256" height="60" as="geometry" />
        </mxCell>
        <mxCell id="K0_olAz4azfouy1TQkoH-46" value="" style="edgeStyle=orthogonalEdgeStyle;rounded=0;orthogonalLoop=1;jettySize=auto;html=1;" parent="1" source="K0_olAz4azfouy1TQkoH-43" edge="1">
          <mxGeometry relative="1" as="geometry">
            <mxPoint x="539.5" y="1860" as="targetPoint" />
          </mxGeometry>
        </mxCell>
        <mxCell id="K0_olAz4azfouy1TQkoH-43" value="无视 HTTP 头信息的配置&lt;br&gt;把响应内容 的引用 存入 memory cache" style="rounded=0;whiteSpace=wrap;html=1;" parent="1" vertex="1">
          <mxGeometry x="411.5" y="1700" width="256" height="60" as="geometry" />
        </mxCell>
        <mxCell id="K0_olAz4azfouy1TQkoH-45" value="如果 Service Worker 的脚本调用了 cache.put()&lt;br&gt;把响应内容存入 Service Worker 的 Cache Storage" style="rounded=0;whiteSpace=wrap;html=1;" parent="1" vertex="1">
          <mxGeometry x="375.5" y="1820" width="340" height="60" as="geometry" />
        </mxCell>
        <mxCell id="ls9EEzSpfhRb5rXhCyP0-3" value="" style="edgeStyle=orthogonalEdgeStyle;rounded=0;orthogonalLoop=1;jettySize=auto;html=1;" edge="1" parent="1" source="K0_olAz4azfouy1TQkoH-48" target="ls9EEzSpfhRb5rXhCyP0-2">
          <mxGeometry relative="1" as="geometry" />
        </mxCell>
        <mxCell id="K0_olAz4azfouy1TQkoH-48" value="使用 &lt;b&gt;协商缓存&lt;/b&gt;" style="whiteSpace=wrap;html=1;rounded=0;" parent="1" vertex="1">
          <mxGeometry x="456.5" y="910" width="179" height="60" as="geometry" />
        </mxCell>
        <mxCell id="K0_olAz4azfouy1TQkoH-58" value="返回 304" style="edgeStyle=orthogonalEdgeStyle;rounded=0;orthogonalLoop=1;jettySize=auto;html=1;exitX=0.25;exitY=1;exitDx=0;exitDy=0;" parent="1" source="K0_olAz4azfouy1TQkoH-55" target="K0_olAz4azfouy1TQkoH-57" edge="1">
          <mxGeometry relative="1" as="geometry" />
        </mxCell>
        <mxCell id="K0_olAz4azfouy1TQkoH-65" value="" style="edgeStyle=orthogonalEdgeStyle;rounded=0;orthogonalLoop=1;jettySize=auto;html=1;exitX=0.75;exitY=1;exitDx=0;exitDy=0;" parent="1" source="K0_olAz4azfouy1TQkoH-55" target="K0_olAz4azfouy1TQkoH-64" edge="1">
          <mxGeometry relative="1" as="geometry">
            <mxPoint x="1130" y="1330" as="sourcePoint" />
          </mxGeometry>
        </mxCell>
        <mxCell id="K0_olAz4azfouy1TQkoH-66" value="返回200" style="edgeLabel;html=1;align=center;verticalAlign=middle;resizable=0;points=[];" parent="K0_olAz4azfouy1TQkoH-65" vertex="1" connectable="0">
          <mxGeometry x="-0.4127" y="5" relative="1" as="geometry">
            <mxPoint x="35.93" as="offset" />
          </mxGeometry>
        </mxCell>
        <mxCell id="K0_olAz4azfouy1TQkoH-55" value="服务器判断，返回 304 或 200" style="rounded=0;whiteSpace=wrap;html=1;" parent="1" vertex="1">
          <mxGeometry x="1010" y="1270" width="256" height="60" as="geometry" />
        </mxCell>
        <mxCell id="K0_olAz4azfouy1TQkoH-61" value="" style="edgeStyle=orthogonalEdgeStyle;rounded=0;orthogonalLoop=1;jettySize=auto;html=1;" parent="1" source="K0_olAz4azfouy1TQkoH-57" target="K0_olAz4azfouy1TQkoH-59" edge="1">
          <mxGeometry relative="1" as="geometry" />
        </mxCell>
        <mxCell id="K0_olAz4azfouy1TQkoH-57" value="带上新的response header&lt;br&gt;通知浏览器从缓存中读取资源" style="rounded=0;whiteSpace=wrap;html=1;" parent="1" vertex="1">
          <mxGeometry x="827" y="1410" width="256" height="60" as="geometry" />
        </mxCell>
        <mxCell id="K0_olAz4azfouy1TQkoH-59" value="使用缓存内容&lt;br&gt;状态码304" style="rounded=0;whiteSpace=wrap;html=1;" parent="1" vertex="1">
          <mxGeometry x="91" y="1410" width="256" height="60" as="geometry" />
        </mxCell>
        <mxCell id="K0_olAz4azfouy1TQkoH-72" style="edgeStyle=orthogonalEdgeStyle;rounded=0;orthogonalLoop=1;jettySize=auto;html=1;exitX=0.5;exitY=1;exitDx=0;exitDy=0;entryX=0.5;entryY=0;entryDx=0;entryDy=0;" parent="1" source="K0_olAz4azfouy1TQkoH-64" target="K0_olAz4azfouy1TQkoH-41" edge="1">
          <mxGeometry relative="1" as="geometry" />
        </mxCell>
        <mxCell id="K0_olAz4azfouy1TQkoH-64" value="返回新资源" style="rounded=0;whiteSpace=wrap;html=1;" parent="1" vertex="1">
          <mxGeometry x="1170" y="1410" width="256" height="60" as="geometry" />
        </mxCell>
        <mxCell id="ls9EEzSpfhRb5rXhCyP0-1" value="" style="rounded=0;whiteSpace=wrap;html=1;dashed=1;fillColor=none;" vertex="1" parent="1">
          <mxGeometry x="246" y="270" width="380" height="290" as="geometry" />
        </mxCell>
        <mxCell id="ls9EEzSpfhRb5rXhCyP0-5" value="" style="edgeStyle=orthogonalEdgeStyle;rounded=0;orthogonalLoop=1;jettySize=auto;html=1;" edge="1" parent="1" source="ls9EEzSpfhRb5rXhCyP0-2" target="ls9EEzSpfhRb5rXhCyP0-4">
          <mxGeometry relative="1" as="geometry" />
        </mxCell>
        <mxCell id="ls9EEzSpfhRb5rXhCyP0-10" value="是" style="edgeLabel;html=1;align=center;verticalAlign=middle;resizable=0;points=[];" vertex="1" connectable="0" parent="ls9EEzSpfhRb5rXhCyP0-5">
          <mxGeometry x="-0.1693" y="-1" relative="1" as="geometry">
            <mxPoint x="21" y="1" as="offset" />
          </mxGeometry>
        </mxCell>
        <mxCell id="ls9EEzSpfhRb5rXhCyP0-7" value="" style="edgeStyle=orthogonalEdgeStyle;rounded=0;orthogonalLoop=1;jettySize=auto;html=1;" edge="1" parent="1" source="ls9EEzSpfhRb5rXhCyP0-2" target="ls9EEzSpfhRb5rXhCyP0-6">
          <mxGeometry relative="1" as="geometry" />
        </mxCell>
        <mxCell id="ls9EEzSpfhRb5rXhCyP0-11" value="否" style="edgeLabel;html=1;align=center;verticalAlign=middle;resizable=0;points=[];" vertex="1" connectable="0" parent="ls9EEzSpfhRb5rXhCyP0-7">
          <mxGeometry x="-0.5089" y="2" relative="1" as="geometry">
            <mxPoint as="offset" />
          </mxGeometry>
        </mxCell>
        <mxCell id="ls9EEzSpfhRb5rXhCyP0-2" value="缓存资源有etag?" style="rhombus;whiteSpace=wrap;html=1;rounded=0;" vertex="1" parent="1">
          <mxGeometry x="450.75" y="1000" width="189.5" height="80" as="geometry" />
        </mxCell>
        <mxCell id="ls9EEzSpfhRb5rXhCyP0-8" style="edgeStyle=orthogonalEdgeStyle;rounded=0;orthogonalLoop=1;jettySize=auto;html=1;exitX=0.5;exitY=1;exitDx=0;exitDy=0;entryX=0.25;entryY=0;entryDx=0;entryDy=0;" edge="1" parent="1" source="ls9EEzSpfhRb5rXhCyP0-4" target="K0_olAz4azfouy1TQkoH-40">
          <mxGeometry relative="1" as="geometry" />
        </mxCell>
        <mxCell id="ls9EEzSpfhRb5rXhCyP0-4" value="请求头部带上&lt;br&gt;If-None-Match&lt;br&gt;值是etag的值" style="whiteSpace=wrap;html=1;rounded=0;" vertex="1" parent="1">
          <mxGeometry x="298" y="1120" width="120" height="60" as="geometry" />
        </mxCell>
        <mxCell id="ls9EEzSpfhRb5rXhCyP0-9" style="edgeStyle=orthogonalEdgeStyle;rounded=0;orthogonalLoop=1;jettySize=auto;html=1;exitX=0.5;exitY=1;exitDx=0;exitDy=0;entryX=0.75;entryY=0;entryDx=0;entryDy=0;" edge="1" parent="1" source="ls9EEzSpfhRb5rXhCyP0-6" target="K0_olAz4azfouy1TQkoH-40">
          <mxGeometry relative="1" as="geometry" />
        </mxCell>
        <mxCell id="ls9EEzSpfhRb5rXhCyP0-6" value="请求头带上&lt;br&gt;If-Modify-Since&lt;br&gt;值是缓存资源响应头中&lt;br&gt;Last-Modify的值" style="whiteSpace=wrap;html=1;rounded=0;" vertex="1" parent="1">
          <mxGeometry x="660" y="1120" width="165" height="60" as="geometry" />
        </mxCell>
      </root>
    </mxGraphModel>
  </diagram>
</mxfile>
